<?xml version="1.0" encoding="UTF-8" standalone="no"?>
<!DOCTYPE svg PUBLIC "-//W3C//DTD SVG 1.1//EN"
 "http://www.w3.org/Graphics/SVG/1.1/DTD/svg11.dtd">
<!-- Generated by graphviz version 2.40.1 (20161225.0304)
 -->
<!-- Title: G Pages: 1 -->
<svg width="258pt" height="798pt"
 viewBox="0.00 0.00 258.00 798.00" xmlns="http://www.w3.org/2000/svg" xmlns:xlink="http://www.w3.org/1999/xlink">
<g id="graph0" class="graph" transform="scale(1 1) rotate(0) translate(4 794)">
<title>G</title>
<polygon fill="#ffffff" stroke="transparent" points="-4,4 -4,-794 254,-794 254,4 -4,4"/>
<g id="clust1" class="cluster">
<title>cluster_Global</title>
<path fill="none" stroke="#c0c0c0" d="M20,-8C20,-8 230,-8 230,-8 236,-8 242,-14 242,-20 242,-20 242,-770 242,-770 242,-776 236,-782 230,-782 230,-782 20,-782 20,-782 14,-782 8,-776 8,-770 8,-770 8,-20 8,-20 8,-14 14,-8 20,-8"/>
<text text-anchor="middle" x="125" y="-769.2" font-family="Times,serif" font-size="11.00" fill="#c0c0c0">Global</text>
</g>
<g id="clust2" class="cluster">
<title>cluster_\tomk79</title>
<path fill="none" stroke="#c0c0c0" d="M28,-16C28,-16 222,-16 222,-16 228,-16 234,-22 234,-28 234,-28 234,-742 234,-742 234,-748 228,-754 222,-754 222,-754 28,-754 28,-754 22,-754 16,-748 16,-742 16,-742 16,-28 16,-28 16,-22 22,-16 28,-16"/>
<text text-anchor="middle" x="125" y="-741.2" font-family="Times,serif" font-size="11.00" fill="#c0c0c0">tomk79</text>
</g>
<g id="clust3" class="cluster">
<title>cluster_\tomk79\pickles2</title>
<path fill="none" stroke="#c0c0c0" d="M36,-24C36,-24 214,-24 214,-24 220,-24 226,-30 226,-36 226,-36 226,-714 226,-714 226,-720 220,-726 214,-726 214,-726 36,-726 36,-726 30,-726 24,-720 24,-714 24,-714 24,-36 24,-36 24,-30 30,-24 36,-24"/>
<text text-anchor="middle" x="125" y="-713.2" font-family="Times,serif" font-size="11.00" fill="#c0c0c0">pickles2</text>
</g>
<g id="clust4" class="cluster">
<title>cluster_\tomk79\pickles2\px2dthelper</title>
<path fill="none" stroke="#c0c0c0" d="M44,-32C44,-32 206,-32 206,-32 212,-32 218,-38 218,-44 218,-44 218,-686 218,-686 218,-692 212,-698 206,-698 206,-698 44,-698 44,-698 38,-698 32,-692 32,-686 32,-686 32,-44 32,-44 32,-38 38,-32 44,-32"/>
<text text-anchor="middle" x="125" y="-685.2" font-family="Times,serif" font-size="11.00" fill="#c0c0c0">px2dthelper</text>
</g>
<!-- \\tomk79\\pickles2\\px2dthelper\\std_output -->
<g id="node1" class="node">
<title>\\tomk79\\pickles2\\px2dthelper\\std_output</title>
<polygon fill="none" stroke="#000000" points="158,-670 92,-670 92,-634 158,-634 158,-670"/>
<text text-anchor="middle" x="125" y="-649.2" font-family="Courier,monospace" font-size="11.00" fill="#000000">std_output</text>
</g>
<!-- \\tomk79\\pickles2\\px2dthelper\\fncs_init_content -->
<g id="node2" class="node">
<title>\\tomk79\\pickles2\\px2dthelper\\fncs_init_content</title>
<polygon fill="none" stroke="#000000" points="175.5,-616 74.5,-616 74.5,-580 175.5,-580 175.5,-616"/>
<text text-anchor="middle" x="125" y="-595.2" font-family="Courier,monospace" font-size="11.00" fill="#000000">fncs_init_content</text>
</g>
<!-- \\tomk79\\pickles2\\px2dthelper\\simple_html_dom_node -->
<g id="node3" class="node">
<title>\\tomk79\\pickles2\\px2dthelper\\simple_html_dom_node</title>
<polygon fill="none" stroke="#000000" points="183,-562 67,-562 67,-526 183,-526 183,-562"/>
<text text-anchor="middle" x="125" y="-541.2" font-family="Courier,monospace" font-size="11.00" fill="#000000">simple_html_dom_node</text>
</g>
<!-- \\tomk79\\pickles2\\px2dthelper\\simple_html_dom -->
<g id="node4" class="node">
<title>\\tomk79\\pickles2\\px2dthelper\\simple_html_dom</title>
<polygon fill="none" stroke="#000000" points="170.5,-508 79.5,-508 79.5,-472 170.5,-472 170.5,-508"/>
<text text-anchor="middle" x="125" y="-487.2" font-family="Courier,monospace" font-size="11.00" fill="#000000">simple_html_dom</text>
</g>
<!-- \\tomk79\\pickles2\\px2dthelper\\document_modules -->
<g id="node5" class="node">
<title>\\tomk79\\pickles2\\px2dthelper\\document_modules</title>
<polygon fill="none" stroke="#000000" points="173,-454 77,-454 77,-418 173,-418 173,-454"/>
<text text-anchor="middle" x="125" y="-433.2" font-family="Courier,monospace" font-size="11.00" fill="#000000">document_modules</text>
</g>
<!-- \\tomk79\\pickles2\\px2dthelper\\fncs_search_sitemap -->
<g id="node6" class="node">
<title>\\tomk79\\pickles2\\px2dthelper\\fncs_search_sitemap</title>
<polygon fill="none" stroke="#000000" points="180.5,-400 69.5,-400 69.5,-364 180.5,-364 180.5,-400"/>
<text text-anchor="middle" x="125" y="-379.2" font-family="Courier,monospace" font-size="11.00" fill="#000000">fncs_search_sitemap</text>
</g>
<!-- \\tomk79\\pickles2\\px2dthelper\\fncs_change_content_editor_mode -->
<g id="node7" class="node">
<title>\\tomk79\\pickles2\\px2dthelper\\fncs_change_content_editor_mode</title>
<polygon fill="none" stroke="#000000" points="210,-346 40,-346 40,-310 210,-310 210,-346"/>
<text text-anchor="middle" x="125" y="-325.2" font-family="Courier,monospace" font-size="11.00" fill="#000000">fncs_change_content_editor_mode</text>
</g>
<!-- \\tomk79\\pickles2\\px2dthelper\\main -->
<g id="node8" class="node">
<title>\\tomk79\\pickles2\\px2dthelper\\main</title>
<polygon fill="none" stroke="#000000" points="152,-292 98,-292 98,-256 152,-256 152,-292"/>
<text text-anchor="middle" x="125" y="-271.2" font-family="Courier,monospace" font-size="11.00" fill="#000000">main</text>
</g>
<!-- \\tomk79\\pickles2\\px2dthelper\\packages -->
<g id="node9" class="node">
<title>\\tomk79\\pickles2\\px2dthelper\\packages</title>
<polygon fill="none" stroke="#000000" points="153,-238 97,-238 97,-202 153,-202 153,-238"/>
<text text-anchor="middle" x="125" y="-217.2" font-family="Courier,monospace" font-size="11.00" fill="#000000">packages</text>
</g>
<!-- \\tomk79\\pickles2\\px2dthelper\\plugins -->
<g id="node10" class="node">
<title>\\tomk79\\pickles2\\px2dthelper\\plugins</title>
<polygon fill="none" stroke="#000000" points="152,-184 98,-184 98,-148 152,-148 152,-184"/>
<text text-anchor="middle" x="125" y="-163.2" font-family="Courier,monospace" font-size="11.00" fill="#000000">plugins</text>
</g>
<!-- \\tomk79\\pickles2\\px2dthelper\\fncs_copy_content -->
<g id="node11" class="node">
<title>\\tomk79\\pickles2\\px2dthelper\\fncs_copy_content</title>
<polygon fill="none" stroke="#000000" points="175.5,-130 74.5,-130 74.5,-94 175.5,-94 175.5,-130"/>
<text text-anchor="middle" x="125" y="-109.2" font-family="Courier,monospace" font-size="11.00" fill="#000000">fncs_copy_content</text>
</g>
<!-- \\tomk79\\pickles2\\px2dthelper\\broccoli_receive_message -->
<g id="node12" class="node">
<title>\\tomk79\\pickles2\\px2dthelper\\broccoli_receive_message</title>
<polygon fill="none" stroke="#000000" points="192.5,-76 57.5,-76 57.5,-40 192.5,-40 192.5,-76"/>
<text text-anchor="middle" x="125" y="-55.2" font-family="Courier,monospace" font-size="11.00" fill="#000000">broccoli_receive_message</text>
</g>
</g>
</svg>
