<?xml version="1.0" encoding="utf-8"?>
<svg version="1.1" id="pickles2-logo" xmlns="http://www.w3.org/2000/svg" xmlns:xlink="http://www.w3.org/1999/xlink" x="0px" y="0px"
	 viewBox="0 0 345.9 84.3" enable-background="new 0 0 345.9 84.3" xml:space="preserve">
<g>
	<g>
		<path fill="#FFFFFF" d="M124,20.4c11.5-0.1,17.2,4.8,17.2,13.5c0,9.3-6.4,15.3-18,15.3c-1.5,0-3.2-0.1-5-0.3v17h-4.5V21.5
			C117.5,20.8,121,20.5,124,20.4z M131.1,43.8c3.4-1.5,5.4-4.8,5.4-9.4c0-6.8-4.2-9.9-12.2-9.9c-1.9,0-4,0.2-6,0.5v20.1
			c1.5,0.1,3.1,0.2,4.6,0.2C126,45.3,129,44.9,131.1,43.8z"/>
		<path fill="#FFFFFF" d="M152.2,22.1c1.8,0,3,1.2,3,3.1c0,1.9-1.3,3.4-3.4,3.4c-1.8,0-3.1-1.2-3.1-3
			C148.8,23.6,150.2,22.1,152.2,22.1z M154.1,34.9V66h-4.4V35L154.1,34.9z"/>
		<path fill="#FFFFFF" d="M177.3,34.2c4.2,0,7,1.7,9.3,4.8l-2.3,2.5c-2.4-2.3-4.5-3.5-7.4-3.5c-2.3,0-4,0.8-5.2,1.8
			c-2.3,1.9-3.8,5.5-3.8,10.7c0,8.3,3.7,12.3,9.5,12.3c2.1,0,5-0.7,7.8-1.7l1.1,3.4c-3.2,1.5-6.7,2.3-9.5,2.3
			c-8.4,0-13.5-6-13.5-15.6C163.4,41.1,169,34.2,177.3,34.2z"/>
		<path fill="#FFFFFF" d="M219.1,34.9c-0.1,0.7-0.7,1.5-1.4,2.3l-10.5,11.6l11.3,14.5c0.7,0.9,1.3,1.8,1.5,2.6h-4.8L204.3,52
			l-5,5.4V66h-4.4V15.8l4.4-0.1v36.1l15.3-16.9H219.1z"/>
		<path fill="#FFFFFF" d="M231.5,15.7v44.2c0,2.1,0.6,3,2,3c0.6,0,1.5-0.1,2.5-0.5l1,3.4c-1.6,0.7-3.3,1-4.8,1c-3.2,0-5-1.9-5-5.7
			V15.8L231.5,15.7z"/>
		<path fill="#FFFFFF" d="M255.8,34.1c7.4,0,11.1,5.5,11.1,12.4c0,1.7-0.2,3.4-0.5,5h-20c0.3,7.8,4.2,11.5,9.7,11.5
			c2.7,0,5.8-0.5,8.8-1.7l1.2,3.1c-3.6,1.7-7.2,2.5-10.9,2.5c-7.4,0-13.3-5.4-13.3-15.8C242,41.5,247.4,34.1,255.8,34.1z
			 M246.6,48.1h15.8c0.1-0.7,0.1-1.6,0.1-2.4c0-4.5-2.4-7.9-7-7.9C250.4,37.8,247.2,41.7,246.6,48.1z"/>
		<path fill="#FFFFFF" d="M285.5,34.2c3.8,0,6.9,1.3,9.2,3.2l-1.9,2.9c-2.3-1.5-4.7-2.3-7.3-2.3c-3.7,0-6.1,1.7-6.1,4.5
			c0,3.2,3.3,4.6,6.8,5.9c5,1.8,9.5,3.8,9.5,9.2c0,5.6-4.7,9.2-11.5,9.2c-4.4,0-7.9-1.5-10.7-3.7l1.9-3c2.5,1.7,5.3,2.9,8.6,2.9
			c4,0,7-1.8,7-5c0-3.6-4-4.8-8-6.5c-4.5-1.7-8.2-3.8-8.2-8.5C274.8,37.5,279.7,34.2,285.5,34.2z"/>
		<path fill="#FFFFFF" d="M331.1,20.4c8.9,0,13.1,6.1,13.1,12.9c0,8.5-6.2,15.7-14.4,23.9l-4.9,4.9h20l0.2,4h-25.3l-0.5-4.2l6-6
			c8.8-8.8,14.1-15.3,14.1-22.3c0-5.2-2.8-9-8.6-9c-3.2,0-6.3,1.2-9,3.1l-2.1-2.9C322.8,21.8,326.9,20.4,331.1,20.4z"/>
	</g>
	<g>
		<path fill="#FFFFFF" d="M20.6,27c7.4,0,11,3.1,11,8.6c0,5.9-4.1,9.8-11.5,9.8c-0.9,0-2.1,0-3.2-0.2v10.9h-2.9V27.7
			C16.4,27.2,18.7,27,20.6,27z M25.1,41.9c2.1-0.9,3.5-3,3.5-6c0-4.4-2.7-6.3-7.8-6.3c-1.2,0-2.5,0.1-3.8,0.3v12.8
			c1,0.1,2,0.1,2.9,0.1C21.9,42.8,23.8,42.6,25.1,41.9z"/>
		<path fill="#FFFFFF" d="M38.6,36.2l4.8,7.5h0l4.9-7.5H51c-0.1,0.6-0.4,1.2-0.8,1.7L45,45.6l6,8.8c0.3,0.6,0.7,1.1,0.7,1.7h-2.9
			l-5.7-8.5h0l-5.6,8.5h-2.6c0-0.6,0.4-1.2,0.8-1.7l5.9-8.8L36.3,38c-0.4-0.6-0.7-1.1-0.8-1.7H38.6z"/>
		<path fill="#FFFFFF" d="M62.9,27c5.7,0,8.3,3.9,8.3,8.2c0,5.4-4,10-9.2,15.2l-3.1,3.1h12.8l0.1,2.5H55.6l-0.3-2.7l3.8-3.8
			c5.6-5.6,9-9.8,9-14.2c0-3.3-1.8-5.8-5.5-5.8c-2,0-4,0.8-5.7,2l-1.4-1.8C57.6,27.9,60.2,27,62.9,27z"/>
	</g>
	<path fill="#FFFFFF" d="M0.8,0v82.5h82.5V0H0.8z M3.1,80.1V2.3h77.8v77.8H3.1z"/>
</g>
</svg>
